<?xml version="1.0" standalone="no"?>
<!DOCTYPE svg PUBLIC "-//W3C//DTD SVG 1.1//EN" "http://www.w3.org/Graphics/SVG/1.1/DTD/svg11.dtd" >
<svg xmlns="http://www.w3.org/2000/svg" xmlns:xlink="http://www.w3.org/1999/xlink" version="1.1">
<metadata>
Created by FontForge 20161003 at Mon Jun 25 07:29:50 2018
 By www-data
</metadata>
<defs>
<font id="icomoon" horiz-adv-x="1024" >
  <font-face 
    font-family="icomoon"
    font-weight="400"
    font-stretch="normal"
    units-per-em="1024"
    panose-1="0 0 0 0 0 0 0 0 0 0"
    ascent="960"
    descent="-64"
    bbox="-1 -65 4608 961.452"
    underline-thickness="0"
    underline-position="0"
    unicode-range="U+0001-FFFD"
  />
<missing-glyph 
 />
    <glyph glyph-name=".notdef" unicode="&#xfffd;" 
 />
    <glyph glyph-name="glyph1" horiz-adv-x="0" 
d="M0 0v0v0v0z" />
    <glyph glyph-name="glyph1" horiz-adv-x="0" 
d="M0 0v0v0v0z" />
    <glyph glyph-name="nonmarkingreturn" horiz-adv-x="341" 
 />
    <glyph glyph-name="uni0001" horiz-adv-x="0" 
d="M0 0v0v0v0z" />
    <glyph glyph-name="space" unicode=" " horiz-adv-x="512" 
d="M0 0v0v0v0z" />
    <glyph glyph-name="uniE900" unicode="&#xe900;" horiz-adv-x="1088" 
d="M1086 216q-5 17 -21 24.5t-32 2.5l-55 -18q25 52 38 108.5t13 114.5q0 106 -40.5 199t-110.5 162.5t-163.5 110t-199.5 40.5q-107 0 -200.5 -40.5t-163.5 -110t-110.5 -162.5t-40.5 -199t40.5 -199t110.5 -162.5t163.5 -110t200.5 -40.5q17 0 29.5 12.5t12.5 29.5
t-12.5 29.5t-29.5 12.5q-89 0 -167.5 33.5t-137 92t-92.5 136t-34 166.5t34 166.5t92.5 136t137 92t167.5 33.5t167 -33.5t136.5 -92t92.5 -136t34 -166.5q0 -49 -11 -96t-32 -91l-19 58q-5 16 -20.5 24t-32.5 3q-17 -6 -24.5 -21.5t-2.5 -31.5l50 -152q4 -14 15 -21.5
t25 -7.5q3 0 6.5 0.5t6.5 1.5l153 49q16 5 24 20.5t3 32.5v0v0z" />
    <glyph glyph-name="uniE901" unicode="&#xe901;" 
d="M1024 -18l-46 -46l-341 341q-50 -43 -114 -67.5t-136 -24.5q-80 0 -150.5 30.5t-123 83t-83 123t-30.5 150.5q0 81 30.5 151.5t83 123t123 83t150.5 30.5q81 0 151.5 -30.5t123 -83t83 -123t30.5 -151.5q0 -71 -24.5 -135t-67.5 -114l341 -341v0zM387 895
q-66 0 -125 -25.5t-103 -69t-69.5 -102.5t-25.5 -126q0 -66 25.5 -125t69.5 -103t103 -69t125 -25q67 0 126 25t103 69t69 103t25 125q0 67 -25 126t-69 102.5t-103 69t-126 25.5z" />
    <glyph glyph-name="uniE902" unicode="&#xe902;" horiz-adv-x="1117" 
d="M1111 429l-139 -205q-5 -7 -13 -11t-16 -4h-734v-68h768v-68h-111q3 -9 5 -17.5t2 -17.5q0 -42 -31 -72t-74 -30t-74 30t-31 72q0 9 2 17.5t5 17.5h-188q3 -9 5 -17.5t2 -17.5q0 -42 -31 -72t-74 -30t-74 30t-31 72q0 9 2 17.5t5 17.5h-77q-34 0 -51.5 21.5t-17.5 46.5
v751h-140v68h175q14 0 24 -10t10 -24v-103h873q15 0 25 -10t10 -24v-341q0 -5 -1.5 -10t-4.5 -9v0zM733 38q0 -14 10.5 -24t24.5 -10t24.5 10t10.5 24q0 15 -10.5 25t-24.5 10t-24.5 -10t-10.5 -25zM384 4q14 0 24.5 10t10.5 24q0 15 -10.5 25t-24.5 10t-24.5 -10t-10.5 -25
q0 -14 10.5 -24t24.5 -10zM1047 755h-838v-478h715l123 181v297v0z" />
    <glyph glyph-name="uniE903" unicode="&#xe903;" horiz-adv-x="576" 
d="M575 426l-489 -489l-85 85l426 426l-426 426l85 85l489 -489l-22 -22z" />
    <glyph glyph-name="uniE904" unicode="&#xe904;" horiz-adv-x="1863" 
d="M1861 800l-857 -857l-66 66l-71 -71l-865 866l154 154l779 -779l774 774l152 -153v0z" />
    <glyph glyph-name="uniE905" unicode="&#xe905;" horiz-adv-x="1880" 
d="M1855 510q-6 7 -79 78t-195.5 154t-287 150.5t-353.5 67.5q-190 0 -354.5 -67.5t-287 -150.5t-195.5 -154t-79 -78q-25 -27 -25 -62t25 -62q6 -7 79 -78t195.5 -154t287 -150.5t354.5 -67.5q189 0 353.5 67.5t287 150.5t195.5 154t79 78q25 27 25 62t-25 62v0v0z
M1094 701q25 13 56 0t49 -45q19 -32 14 -63.5t-31 -44.5q-25 -13 -56 0t-50 45q-18 31 -13 63t31 45v0v0zM940 92q-133 0 -252.5 41.5t-217.5 99t-171 117.5t-111 98q26 25 68 62t97 77t122 79.5t144 70.5q-30 -43 -46.5 -93.5t-16.5 -105.5q0 -75 30 -141t82 -115
t122 -77.5t150 -28.5q79 0 149 28.5t122 77.5t82 115t30 141q0 55 -16.5 105.5t-46.5 93.5q77 -31 144 -70.5t122 -79.5t97 -77t68 -62q-38 -38 -111 -98t-171 -117.5t-217.5 -99t-251.5 -41.5v0v0z" />
    <glyph glyph-name="uniE906" unicode="&#xe906;" horiz-adv-x="512" 
d="M512 619h-191v113q0 24 17.5 40.5t41.5 16.5h117v171h-146q-49 0 -91.5 -18t-74.5 -49t-50 -72t-18 -89v-113h-118v-171h118v-512h204v512h147l44 171v0z" />
    <glyph glyph-name="uniE907" unicode="&#xe907;" horiz-adv-x="1566" 
d="M1436 416v-128h-131v128h-130v128h130v128h131v-128h130v-128h-130v0zM522 -64q-108 0 -203 40t-166 109.5t-112 163t-41 199.5t41 199.5t112 163t166 109.5t203 40q54 0 105 -10.5t98 -30t89 -47t77 -62.5l-138 -136q-45 44 -104 69t-127 25t-127 -25t-103.5 -68.5
t-70 -102t-25.5 -124.5t25.5 -124.5t70 -102t103.5 -68.5t127 -25q55 0 104 17t89.5 46.5t70.5 70.5t46 90h-310v192h513q4 -23 6.5 -47t2.5 -49q0 -106 -41 -199.5t-112 -163t-166 -109.5t-203 -40v0z" />
    <glyph glyph-name="uniE908" unicode="&#xe908;" 
d="M711 -64h-398q-65 0 -122 24.5t-99.5 67t-67 99.5t-24.5 122v398q0 65 24.5 122t67 99.5t99.5 67t122 24.5h398q65 0 122 -24.5t99.5 -67t67 -99.5t24.5 -122v-398q0 -65 -24.5 -122t-67 -99.5t-99.5 -67t-122 -24.5zM939 647q0 47 -18 88.5t-49 72.5t-72.5 49t-88.5 18
h-398q-47 0 -88.5 -18t-72.5 -49t-49 -72.5t-18 -88.5v-398q0 -47 18 -88.5t49 -72.5t72.5 -49t88.5 -18h398q47 0 88.5 18t72.5 49t49 72.5t18 88.5v398v0zM779 658q-23 0 -40 17t-17 40q0 24 17 40.5t40 16.5q24 0 40.5 -16.5t16.5 -40.5q0 -23 -16.5 -40t-40.5 -17z
M512 192q-53 0 -99.5 20t-81.5 55t-55 81.5t-20 99.5t20 99.5t55 81.5t81.5 55t99.5 20t99.5 -20t81.5 -55t55 -81.5t20 -99.5t-20 -99.5t-55 -81.5t-81.5 -55t-99.5 -20zM512 619q-71 0 -121 -50t-50 -121t50 -121t121 -50t121 50t50 121t-50 121t-121 50z" />
    <glyph glyph-name="uniE909" unicode="&#xe909;" 
d="M512 -64q-106 0 -199.5 40t-163 109.5t-109.5 163t-40 199.5t40 199.5t109.5 163t163 109.5t199.5 40t199.5 -40t163 -109.5t109.5 -163t40 -199.5t-40 -199.5t-109.5 -163t-163 -109.5t-199.5 -40zM745 703l-581 -214q-10 -4 -10 -15t11 -15l141 -50l55 -169
q3 -8 11 -10t15 3l79 61q6 5 14 5.5t15 -4.5l142 -99q8 -5 16.5 -1.5t9.5 11.5l105 479q2 9 -5.5 15t-17.5 3v0zM406 388q-6 -5 -9.5 -12t-4.5 -15l-8 -55q-1 -5 -7 -5.5t-7 4.5l-30 101q-3 8 0.5 16.5t11.5 13.5l277 162q3 2 6 -1t0 -6l-229 -203v0z" />
    <glyph glyph-name="uniE90A" unicode="&#xe90a;" 
d="M1024 448q0 106 -40.5 199t-110 162.5t-162.5 110t-199 40.5t-199 -40.5t-162.5 -110t-110 -162.5t-40.5 -199q0 -56 11.5 -108.5t33 -100.5t52.5 -90.5t69 -77.5v-1l16 -14q1 0 2 -0.5t2 -1.5q6 -6 13 -11l14 -10q2 -2 4.5 -3.5t4.5 -3.5q8 -5 15.5 -10t15.5 -9
q1 -1 3 -2t3 -2q9 -5 18 -9.5l17 -8.5q1 -1 1.5 -1t1.5 -1q29 -13 60 -23t64 -16h2h1q10 -2 20.5 -3.5t20.5 -2.5h2.5h2.5q11 -1 21 -1.5t21 -0.5q10 0 20.5 0.5t20.5 1.5h3h3q10 1 20 2.5t20 3.5h2h2q32 6 62.5 15.5t59.5 22.5q1 1 2 1.5t2 0.5q9 4 17 8.5t17 9.5l4 2t4 3
q7 4 14.5 8.5t14.5 9.5q3 2 5.5 4t4.5 3q7 5 13 9.5t11 9.5q2 1 3.5 2t2.5 2l17 14h-1q39 36 70 78t53 90.5t33.5 101.5t11.5 109v0v0zM37 448q0 98 37.5 184.5t102 151t151 102t184.5 37.5t184.5 -37.5t151 -102t102 -151t37.5 -184.5q0 -53 -11.5 -103t-32 -95t-50 -84.5
t-66.5 -72.5q-4 3 -8.5 5.5t-8.5 4.5l-157 79q-11 5 -17 15t-6 22v55q2 3 5 7l6 8q15 22 27.5 46t21.5 50q18 8 28.5 24.5t10.5 36.5v66q0 12 -4.5 23.5t-12.5 20.5v87q1 7 -2 41t-33 68q-26 29 -67.5 44t-97.5 15t-97.5 -15t-67.5 -44q-30 -34 -33 -68t-2 -41v-87
q-8 -9 -12.5 -20.5t-4.5 -23.5v-66q0 -16 6.5 -29.5t18.5 -23.5q12 -44 30.5 -75.5t27.5 -43.5v-53q0 -12 -6 -21.5t-16 -15.5l-147 -80q-3 -2 -7 -4.5t-7 -4.5q-36 33 -65.5 72.5t-50 84t-31.5 94t-11 102.5v0v0z" />
    <glyph glyph-name="uniE90B" unicode="&#xe90b;" horiz-adv-x="1463" 
d="M1449 755q-7 74 -59.5 126.5t-127.5 59.5q-43 3 -96 6.5t-115 6.5t-133 4.5t-150 1.5q-95 0 -178 -2t-154 -4.5t-129.5 -6t-104.5 -7.5q-75 -6 -128 -58.5t-60 -127.5q-6 -59 -10 -137t-4 -172q0 -92 4 -168.5t10 -134.5q7 -75 60 -127.5t128 -58.5q46 -4 104.5 -7.5
t129.5 -6t154 -4.5t178 -2q79 0 150 1.5t133 4.5t115 6.5t96 6.5q75 7 127.5 59.5t59.5 126.5q5 59 9.5 136.5t4.5 170.5t-4.5 170.5t-9.5 136.5zM569 233v430l424 -215z" />
    <glyph glyph-name="uniE90C" unicode="&#xe90c;" horiz-adv-x="559" 
d="M132 446l422 -425l-83 -84l-467 471l36 36l-39 39l472 476l84 -85l-425 -428v0z" />
    <glyph glyph-name="uniE90D" unicode="&#xe90d;" horiz-adv-x="887" 
d="M888 960l-888 -512l888 -512v1024v0z" />
    <glyph glyph-name="uniE90E" unicode="&#xe90e;" horiz-adv-x="887" 
d="M0 960l887 -512l-887 -512v1024v0z" />
    <glyph glyph-name="uniE90F" unicode="&#xe90f;" horiz-adv-x="1084" 
d="M1084 -64l-457 517l457 507h-214l-458 -507l458 -517h214zM672 -64l-457 517l457 507h-214l-458 -507l458 -517h214z" />
    <glyph glyph-name="uniE910" unicode="&#xe910;" horiz-adv-x="1084" 
d="M0 -64l458 517l-458 507h215l457 -507l-457 -517h-215v0zM412 -64l458 517l-458 507h214l458 -507l-458 -517h-214z" />
    <glyph glyph-name="uniE911" unicode="&#xe911;" horiz-adv-x="1111" 
d="M1067 223h-251q-19 0 -31.5 13t-12.5 31v161q0 18 12.5 30.5t31.5 12.5h251q18 0 31 -12.5t13 -30.5v-161q0 -18 -13 -31t-31 -13zM902 410q-26 0 -44.5 -18.5t-18.5 -44.5t18.5 -44.5t44.5 -18.5t44.5 18.5t18.5 44.5t-18.5 44.5t-44.5 18.5zM816 524q-40 0 -68.5 -28
t-28.5 -68v-161q0 -40 28.5 -68.5t68.5 -28.5h251h2.5h2.5v-159q0 -31 -22 -53t-53 -22h-923q-30 0 -52 22t-22 53v673q0 31 22 53t52 22h923q31 0 53 -22t22 -53v-160h-2.5h-2.5h-251v0zM746 956q38 13 73.5 -5t48.5 -56l21 -64h-521l378 125v0z" />
    <glyph glyph-name="uniE912" unicode="&#xe912;" 
d="M1025 21l-84 -83l-425 422l-429 -425l-85 84l429 426l-432 431l85 85l430 -430l427 427l84 -84l-428 -428l428 -425v0z" />
    <glyph glyph-name="uniE913" unicode="&#xe913;" horiz-adv-x="8192" 
d="M3584 384h1024v128h-1024v-128z" />
    <glyph glyph-name="uniE914" unicode="&#xe914;" 
d="M1024 384h-448v-448h-128v448h-448v128h448v448h128v-448h448v-128z" />
    <glyph glyph-name="uniE915" unicode="&#xe915;" 
d="M0 448l256 256v-213h768v-86h-768v-213l-256 256v0z" />
    <glyph glyph-name="uniE916" unicode="&#xe916;" 
d="M1024 448l-256 256v-213h-768v-86h768v-213l256 256v0z" />
  </font>
</defs>
</svg>
